<svg width="40" height="40" viewBox="0 0 40 40" fill="none" xmlns="http://www.w3.org/2000/svg">
<g clip-path="url(#clip0_160_333)">
<path d="M11.6663 8.33333V3.33333C11.6663 2.8913 11.8419 2.46738 12.1545 2.15482C12.4671 1.84226 12.891 1.66666 13.333 1.66666H26.6663C27.1084 1.66666 27.5323 1.84226 27.8449 2.15482C28.1574 2.46738 28.333 2.8913 28.333 3.33333V8.33333H34.9997C35.4417 8.33333 35.8656 8.50893 36.1782 8.82149C36.4907 9.13405 36.6663 9.55797 36.6663 10V33.3333C36.6663 33.7754 36.4907 34.1993 36.1782 34.5118C35.8656 34.8244 35.4417 35 34.9997 35H4.99967C4.55765 35 4.13372 34.8244 3.82116 34.5118C3.5086 34.1993 3.33301 33.7754 3.33301 33.3333V10C3.33301 9.55797 3.5086 9.13405 3.82116 8.82149C4.13372 8.50893 4.55765 8.33333 4.99967 8.33333H11.6663ZM6.66634 26.6667V31.6667H33.333V26.6667H6.66634ZM6.66634 23.3333H33.333V11.6667H6.66634V23.3333ZM14.9997 5V8.33333H24.9997V5H14.9997ZM18.333 18.3333H21.6663V21.6667H18.333V18.3333Z" fill="#218C3E"/>
</g>
<defs>
<clipPath id="clip0_160_333">
<rect width="40" height="40" fill="white"/>
</clipPath>
</defs>
</svg>
