<svg width="40" height="40" viewBox="0 0 40 40" fill="none" xmlns="http://www.w3.org/2000/svg">
<g clip-path="url(#clip0_160_325)">
<path d="M28.333 5.00001H34.9997C35.4417 5.00001 35.8656 5.1756 36.1782 5.48816C36.4907 5.80072 36.6663 6.22464 36.6663 6.66667V33.3333C36.6663 33.7754 36.4907 34.1993 36.1782 34.5118C35.8656 34.8244 35.4417 35 34.9997 35H4.99967C4.55765 35 4.13372 34.8244 3.82116 34.5118C3.5086 34.1993 3.33301 33.7754 3.33301 33.3333V6.66667C3.33301 6.22464 3.5086 5.80072 3.82116 5.48816C4.13372 5.1756 4.55765 5.00001 4.99967 5.00001H11.6663V1.66667H14.9997V5.00001H24.9997V1.66667H28.333V5.00001ZM33.333 15V8.33334H28.333V11.6667H24.9997V8.33334H14.9997V11.6667H11.6663V8.33334H6.66634V15H33.333ZM33.333 18.3333H6.66634V31.6667H33.333V18.3333ZM9.99967 21.6667H18.333V28.3333H9.99967V21.6667Z" fill="#218C3E"/>
</g>
<defs>
<clipPath id="clip0_160_325">
<rect width="40" height="40" fill="white"/>
</clipPath>
</defs>
</svg>
