<svg width="40" height="40" viewBox="0 0 40 40" fill="none" xmlns="http://www.w3.org/2000/svg">
<g clip-path="url(#clip0_160_321)">
<path d="M20.0004 36.6667C18.0306 36.6667 16.0801 36.2787 14.2602 35.5249C12.4403 34.771 10.7867 33.6662 9.39384 32.2733C8.00096 30.8804 6.89607 29.2268 6.14225 27.4069C5.38843 25.587 5.00044 23.6365 5.00044 21.6667C5.00044 19.6968 5.38843 17.7463 6.14225 15.9264C6.89607 14.1065 8.00096 12.4529 9.39384 11.0601C10.7867 9.66719 12.4403 8.5623 14.2602 7.80848C16.0801 7.05466 18.0306 6.66667 20.0004 6.66667C23.9787 6.66667 27.794 8.24702 30.607 11.0601C33.4201 13.8731 35.0004 17.6884 35.0004 21.6667C35.0004 25.6449 33.4201 29.4602 30.607 32.2733C27.794 35.0863 23.9787 36.6667 20.0004 36.6667ZM20.0004 33.3333C21.5325 33.3333 23.0496 33.0316 24.4651 32.4453C25.8805 31.859 27.1667 30.9996 28.25 29.9163C29.3334 28.8329 30.1927 27.5468 30.779 26.1313C31.3653 24.7158 31.6671 23.1988 31.6671 21.6667C31.6671 20.1346 31.3653 18.6175 30.779 17.202C30.1927 15.7866 29.3334 14.5004 28.25 13.4171C27.1667 12.3337 25.8805 11.4744 24.4651 10.8881C23.0496 10.3018 21.5325 10 20.0004 10C16.9062 10 13.9388 11.2292 11.7509 13.4171C9.56294 15.605 8.33378 18.5725 8.33378 21.6667C8.33378 24.7609 9.56294 27.7283 11.7509 29.9163C13.9388 32.1042 16.9062 33.3333 20.0004 33.3333ZM21.6671 21.6667H26.6671V25H18.3338V13.3333H21.6671V21.6667ZM2.91211 10.47L8.80378 4.57834L11.1621 6.935L5.26711 12.8283L2.91211 10.47ZM31.1954 4.57834L37.0888 10.47L34.7321 12.8283L28.8388 6.935L31.1971 4.57834H31.1954Z" fill="#218C3E"/>
</g>
<defs>
<clipPath id="clip0_160_321">
<rect width="40" height="40" fill="white"/>
</clipPath>
</defs>
</svg>
